<svg xmlns="http://www.w3.org/2000/svg" xmlns:xlink="http://www.w3.org/1999/xlink" id="Vrstva_1" x="0" y="0" enable-background="new 0 0 77 62" version="1.1" viewBox="-1 -1 79 64" xml:space="preserve"><g><g><path d="M38.5,61.5c-1.4,0-2.5-1.1-2.5-2.5V5H25v53c0,1.4-1.1,2.5-2.5,2.5c-1.4,0-2.5-1.1-2.5-2.5V2.5C20,1.1,21.1,0,22.5,0h16 C39.9,0,41,1.1,41,2.5V59C41,60.4,39.9,61.5,38.5,61.5z"/></g><g><path d="M22,61H7c-1.4,0-2.5-1.1-2.5-2.5S5.6,56,7,56h15c1.4,0,2.5,1.1,2.5,2.5S23.4,61,22,61z"/></g><g><path d="M6.5,19.5C5.1,19.5,4,18.4,4,17V3c0-1.4,1.1-2.5,2.5-2.5C7.9,0.5,9,1.6,9,3v14C9,18.4,7.9,19.5,6.5,19.5z"/></g><g><path d="M6.5,60.5C5.1,60.5,4,59.4,4,58V45c0-1.4,1.1-2.5,2.5-2.5C7.9,42.5,9,43.6,9,45v13C9,59.4,7.9,60.5,6.5,60.5z"/></g><g><path d="M10.5,46h-8C1.1,46,0,44.9,0,43.5v-24C0,18.1,1.1,17,2.5,17h8c1.4,0,2.5,1.1,2.5,2.5v24C13,44.9,11.9,46,10.5,46z M5,41h3 V22H5V41z"/></g><g><path d="M8,12H5c-1.4,0-2.5-1.1-2.5-2.5S3.6,7,5,7h3c1.4,0,2.5,1.1,2.5,2.5S9.4,12,8,12z"/></g><g><path d="M54.5,62H39c-1.4,0-2.5-1.1-2.5-2.5S37.6,57,39,57h13V4c0-1.4,1.1-2.5,2.5-2.5C55.9,1.5,57,2.6,57,4v55.5 C57,60.9,55.9,62,54.5,62z"/></g><g><path d="M70,6H55c-1.4,0-2.5-1.1-2.5-2.5S53.6,1,55,1h15c1.4,0,2.5,1.1,2.5,2.5S71.4,6,70,6z"/></g><g><path d="M70.5,61.5c-1.4,0-2.5-1.1-2.5-2.5V45c0-1.4,1.1-2.5,2.5-2.5c1.4,0,2.5,1.1,2.5,2.5v14C73,60.4,71.9,61.5,70.5,61.5z"/></g><g><path d="M70.5,19.5c-1.4,0-2.5-1.1-2.5-2.5V4c0-1.4,1.1-2.5,2.5-2.5C71.9,1.5,73,2.6,73,4v13C73,18.4,71.9,19.5,70.5,19.5z"/></g><g><path d="M74.5,45h-8c-1.4,0-2.5-1.1-2.5-2.5v-24c0-1.4,1.1-2.5,2.5-2.5h8c1.4,0,2.5,1.1,2.5,2.5v24C77,43.9,75.9,45,74.5,45z M69,40h3V21h-3V40z"/></g><g><path d="M72,55h-3c-1.4,0-2.5-1.1-2.5-2.5S67.6,50,69,50h3c1.4,0,2.5,1.1,2.5,2.5S73.4,55,72,55z"/></g></g><script type="text/javascript"><![CDATA[ var c=window.location.search.split('color=')[1]; c=parseInt(c,16); if(!isNaN(c)){c=c.toString(16);var p=document.getElementsByTagName('path');for(var i=0,l=p.length;i<l;i++){p[i].style.fill='#'+c;}} ]]></script></svg>